<svg clip-rule="evenodd" fill-rule="evenodd" stroke-linejoin="round" stroke-miterlimit="2" viewBox="0 0 512 512" xmlns="http://www.w3.org/2000/svg" xmlns:xlink="http://www.w3.org/1999/xlink"><radialGradient id="a" cx="0" cy="0" gradientTransform="matrix(-48 -185 123 -32 179 429.7)" gradientUnits="userSpaceOnUse" r="1"><stop offset="0" stop-color="#fff" stop-opacity=".4"/><stop offset="1" stop-opacity=".1"/></radialGradient><radialGradient id="b" cx="0" cy="0" gradientTransform="matrix(41 -310 229 30 341.6 351.3)" gradientUnits="userSpaceOnUse" r="1"><stop offset="0" stop-color="#fff" stop-opacity=".6"/><stop offset="1" stop-color="#fff" stop-opacity=".1"/></radialGradient><radialGradient id="c" cx="0" cy="0" gradientTransform="matrix(57 -261 178 39 190.5 296.3)" gradientUnits="userSpaceOnUse" r="1"><stop offset="0" stop-color="#fff" stop-opacity=".8"/><stop offset="1" stop-color="#fff" stop-opacity=".4"/></radialGradient><radialGradient id="d" cx="0" cy="0" gradientTransform="matrix(-79 -133 153 -90 321.4 464.2)" gradientUnits="userSpaceOnUse" r="1"><stop offset="0" stop-color="#fff" stop-opacity=".3"/><stop offset="1" stop-opacity=".3"/></radialGradient><radialGradient id="e" cx="0" cy="0" gradientTransform="matrix(-29 136 -92 -20 300.7 149.9)" gradientUnits="userSpaceOnUse" r="1"><stop offset="0" stop-color="#fff" stop-opacity="0"/><stop offset="1" stop-color="#fff" stop-opacity=".2"/></radialGradient><radialGradient id="f" cx="0" cy="0" gradientTransform="matrix(72 73 -155 153 137.8 225.2)" gradientUnits="userSpaceOnUse" r="1"><stop offset="0" stop-color="#fff" stop-opacity=".2"/><stop offset="1" stop-color="#fff" stop-opacity=".4"/></radialGradient><radialGradient id="g" cx="0" cy="0" gradientTransform="matrix(20 118 -251 43 215.1 273.7)" gradientUnits="userSpaceOnUse" r="1"><stop offset="0" stop-color="#fff" stop-opacity=".1"/><stop offset="1" stop-color="#fff" stop-opacity=".3"/></radialGradient><radialGradient id="h" cx="0" cy="0" gradientTransform="matrix(-162 -85 268 -510 374.4 371.7)" gradientUnits="userSpaceOnUse" r="1"><stop offset="0" stop-color="#fff" stop-opacity=".2"/><stop offset=".5" stop-color="#fff" stop-opacity=".2"/><stop offset="1" stop-color="#fff" stop-opacity=".3"/></radialGradient><g transform="matrix(1.214084 0 0 1.214084 -56.218643 -52.834562)"><g fill-rule="nonzero"><path d="m359.9 434.3c-2.6 19.1-21.3 34-40 28.9-26.4-7.3-57-18.7-84.7-20.8l-42.3-3.2c-6.825-.497-13.235-3.488-18-8.4l-73-75c-7.994-8.218-10.144-20.563-5.4-31s45.1-99 46.8-104.2c1.7-5.1 7.8-50 11.4-74.2.987-6.407 4.169-12.277 9-16.6l86.2-77.5c5.13-4.581 11.773-7.116 18.65-7.116 8.549 0 16.643 3.915 21.95 10.616l72.5 92c4.048 5.237 6.231 11.681 6.2 18.3 0 17.4 1.5 53.2 11.1 76.3 9.618 20.783 21.561 40.408 35.6 58.5 3.544 4.503 3.982 10.747 1.1 15.7-6.4 10.8-18.9 31.4-36.7 57.9-11.164 18.167-18.134 38.598-20.4 59.8z" fill="#6c31e3"/><path d="m182.7 436.4c33.9-68.7 33-118 18.5-153-13.2-32.4-37.9-52.8-57.3-65.5-.4 1.9-1 3.7-1.8 5.4l-45.6 101.5c-4.719 10.457-2.528 22.805 5.5 31l72.9 75c2.3 2.3 5 4.2 7.8 5.6z" fill="url(#a)"/><path d="m274.9 297c9.1.9 18 2.9 26.8 6.1 27.8 10.4 53.1 33.8 74 78.9 1.5-2.6 3-5.1 4.6-7.5 12.772-18.953 25.011-38.261 36.7-57.9 2.91-4.933 2.513-11.176-1-15.7-14.074-18.087-26.051-37.713-35.7-58.5-9.6-23-11-58.9-11.1-76.3 0-6.6-2.1-13.1-6.2-18.3l-72.5-92-1.2-1.5c5.3 17.5 5 31.5 1.7 44.2-3 11.8-8.6 22.5-14.5 33.8-2 3.8-4 7.7-5.9 11.7-9.404 17.961-14.795 37.751-15.8 58-1 24.2 3.9 54.5 20 95z" fill="url(#b)"/><path d="m274.8 297c-16.1-40.5-21-70.8-20-95 1-24 8-42 15.8-58l6-11.7c5.8-11.3 11.3-22 14.4-33.8 3.681-14.59 3.091-29.936-1.7-44.2-10.286-11.302-28.022-12.202-39.4-2l-86.2 77.5c-4.831 4.323-8.013 10.193-9 16.6l-10.5 69.6c0 .7-.2 1.3-.3 2 19.4 12.6 44 33 57.3 65.3 2.6 6.4 4.8 13.1 6.4 20.4 21.852-6.06 44.577-8.359 67.2-6.8z" fill="url(#c)"/><path d="m320 463.2c18.6 5.1 37.3-9.8 39.9-29 2.129-18.212 7.515-35.894 15.9-52.2-21-45.1-46.3-68.5-74-78.9-29.5-11-61.6-7.3-94.2.6 7.3 33.1 3 76.4-24.8 132.7 3.1 1.6 6.6 2.5 10.1 2.8l43.9 3.3c23.8 1.7 59.3 14 83.2 20.7z" fill="url(#d)"/></g><path d="m255 200.5c-1.1 24 1.9 51.4 18 91.8l-5-.5c-14.5-42.1-17.7-63.7-16.6-88 1-24.3 8.9-43 16.7-59 2-4 6.6-11.5 8.6-15.3 5.8-11.3 9.7-17.2 13-27.5 4.8-14.4 3.8-21.2 3.2-28 3.7 24.5-10.4 45.8-21 67.5-9.813 18.227-15.61 38.346-17 59z" fill="url(#e)"/><path d="m206 285.1c2 4.4 3.7 8 4.9 13.5l-4.3 1c-1.7-6.4-3-11-5.5-16.5-14.6-34.3-38-52-57-65 23 12.4 46.7 31.9 61.9 67z" fill="url(#f)"/><path d="m211.1 303c8 37.5-1 85.2-27.5 131.6 22.2-46 33-90.1 24-131l3.5-.7z" fill="url(#g)"/><path d="m302.7 299.5c43.5 16.3 60.3 52 72.8 81.9-15.5-31.2-37-65.7-74.4-78.5-28.4-9.8-52.4-8.6-93.5.7l-.9-4c43.6-10 66.4-11.2 96 0z" fill="url(#h)"/></g></svg>